# xmcd CD database file
#
# Track frame offsets:
#	150
#	12957
#	31005
#	45814
#	61630
#	78217
#	91370
#	115245
#	142637
#	161425
#	180640
#	202885
#	219357
#	231780
#
# Disc length: 3272 seconds
#
# Revision: 1
# Processed by: cddbd v1.5.2PL0 Copyright (c) Steve Scherf et al.
# Submitted via: CDex 1.51
#
DISCID=960cc60e
DTITLE=The Aces - Chicago Beat
DYEAR=1900
DGENRE=Blues
TTITLE0=Tell Me Mama
TTITLE1=Hoo-Doo Man
TTITLE2=Take A Little Walk With Me
TTITLE3=Whole Lot Of Lovin'
TTITLE4=Mojo Hand
TTITLE5=Ace's Shuffle
TTITLE6=Blues For Marcelle
TTITLE7=Kansas City
TTITLE8=Early In The Morning
TTITLE9=Money Marbles And Chalk
TTITLE10=Route 66
TTITLE11=Blue Shadows
TTITLE12=Sally Mae,Tell Me What's Wrong With Me
TTITLE13=Stop, Stop, Stop
EXTD=
EXTT0=
EXTT1=
EXTT2=
EXTT3=
EXTT4=
EXTT5=
EXTT6=
EXTT7=
EXTT8=
EXTT9=
EXTT10=
EXTT11=
EXTT12=
EXTT13=
PLAYORDER=
